<svg width="41" height="31" viewBox="0 0 41 31" fill="none" xmlns="http://www.w3.org/2000/svg">
<g clip-path="url(#clip0_1467_8)">
<path d="M22.2939 12.6454L17.0834 9.68747V21.3125L22.2939 18.3546L27.3334 15.5L22.2939 12.6454ZM22.2939 12.6454L17.0834 9.68747V21.3125L22.2939 18.3546L27.3334 15.5L22.2939 12.6454ZM22.2939 12.6454L17.0834 9.68747V21.3125L22.2939 18.3546L27.3334 15.5L22.2939 12.6454ZM18.7918 5.25706V2.64789C15.358 2.90622 12.2318 3.93956 9.70345 5.50247L12.1293 7.34955C14.0255 6.23872 16.2976 5.48956 18.7918 5.25706ZM9.72053 9.1708L7.27761 7.33664C5.21053 9.2483 3.84386 11.6121 3.5022 14.2083H6.95303C7.26053 12.3225 8.25136 10.6046 9.72053 9.1708ZM6.95303 16.7916H3.5022C3.84386 19.3879 5.21053 21.7516 7.27761 23.6633L9.72053 21.8162C8.25136 20.3954 7.26053 18.6775 6.95303 16.7916ZM9.70345 25.4975C12.2318 27.0604 15.3751 28.0937 18.7918 28.3521V25.7429C16.2976 25.5104 14.0255 24.7612 12.1293 23.6504L9.70345 25.4975ZM37.5834 15.5C37.5834 22.165 30.8868 27.6675 22.2939 28.3521V25.7429C28.9905 25.0712 34.1668 20.7312 34.1668 15.5C34.1668 10.2687 28.9905 5.92872 22.2939 5.25706V2.64789C30.8868 3.33247 37.5834 8.83497 37.5834 15.5Z" fill="#FF1500"/>
</g>
<defs>
<clipPath id="clip0_1467_8">
<rect width="41" height="31" fill="white"/>
</clipPath>
</defs>
</svg>
