<svg width="7" height="16" viewBox="0 0 7 16" fill="none" xmlns="http://www.w3.org/2000/svg">
<path id="Vector" d="M3.5 1.5299e-07C1.56545 6.84282e-08 -8.6024e-08 1.968 -1.9233e-07 4.4L-5.59506e-07 12.8C-6.36787e-07 14.568 1.13909 16 2.54545 16C3.95182 16 5.09091 14.568 5.09091 12.8L5.09091 6C5.09091 4.896 4.37818 4 3.5 4C2.62182 4 1.90909 4.896 1.90909 6L1.90909 12L3.18182 12L3.18182 5.928C3.18182 5.488 3.81818 5.488 3.81818 5.928L3.81818 12.8C3.81818 13.68 3.24545 14.4 2.54545 14.4C1.84545 14.4 1.27273 13.68 1.27273 12.8L1.27273 4.4C1.27273 2.856 2.27182 1.6 3.5 1.6C4.72818 1.6 5.72727 2.856 5.72727 4.4L5.72727 12L7 12L7 4.4C7 1.968 5.43455 2.37552e-07 3.5 1.5299e-07Z" fill="white"/>
</svg>
