<svg width="8" height="16" viewBox="0 0 8 16" fill="none" xmlns="http://www.w3.org/2000/svg">
<g id="Group 47">
<g id="&#235;&#167;&#136;&#236;&#157;&#180;&#237;&#129;&#172; &#236;&#149;&#132;&#236;&#157;&#180;&#236;&#189;&#152;">
<g id="Group 1">
<g id="Vector">
<path d="M6.70304 2.93333C6.70304 1.3133 5.51974 0 4.06007 0C2.6004 0 1.4171 1.3133 1.4171 2.93333V7.06667C1.4171 8.6867 2.6004 10 4.06007 10C5.51974 10 6.70304 8.6867 6.70304 7.06667V2.93333Z" fill="white"/>
<path d="M0.399095 7.6C0.165136 7.6 -0.0273619 7.8114 0.00320101 8.06884C0.108649 8.95704 0.511526 9.78964 1.15423 10.4284C1.90898 11.1786 2.93263 11.6 4 11.6C5.06737 11.6 6.09102 11.1786 6.84577 10.4284C7.48847 9.78964 7.89135 8.95704 7.9968 8.06884C8.02736 7.8114 7.83486 7.6 7.6009 7.6C7.36695 7.6 7.18082 7.81192 7.14221 8.06802C7.04205 8.73238 6.7304 9.35221 6.24668 9.83299C5.65082 10.4252 4.84267 10.7579 4 10.7579C3.15733 10.7579 2.34918 10.4252 1.75332 9.83299C1.2696 9.35221 0.957953 8.73238 0.857789 8.06802C0.819177 7.81192 0.633053 7.6 0.399095 7.6Z" fill="white"/>
<path fill-rule="evenodd" clip-rule="evenodd" d="M4.07232 15.7333C4.34449 15.7333 4.56512 15.4885 4.56512 15.1864L4.56512 11.3469C4.56512 11.0449 4.34449 10.8 4.07232 10.8C3.80016 10.8 3.57952 11.0449 3.57952 11.3469V15.1864C3.57952 15.4885 3.80016 15.7333 4.07232 15.7333Z" fill="white"/>
<path fill-rule="evenodd" clip-rule="evenodd" d="M6.10236 15.4531C6.10236 15.151 5.88173 14.9061 5.60956 14.9061H2.15016C1.878 14.9061 1.65736 15.151 1.65736 15.4531C1.65736 15.7551 1.878 16 2.15016 16H5.60956C5.88173 16 6.10236 15.7551 6.10236 15.4531Z" fill="white"/>
</g>
</g>
</g>
</g>
</svg>
